<svg width="50" height="50" viewBox="0 0 50 50" fill="none" xmlns="http://www.w3.org/2000/svg">
<circle opacity="0.2" cx="25" cy="25" r="25" fill="#36B37E"/>
<g clip-path="url(#clip0_2177_40)">
<rect width="17.1429" height="17.1429" transform="translate(16.4287 16.4286)" fill="white" fill-opacity="0.01"/>
<path fill-rule="evenodd" clip-rule="evenodd" d="M25.4875 25H20.0075C19.6277 24.9993 19.2632 25.1493 18.994 25.4172C18.7248 25.6851 18.5729 26.0488 18.5718 26.4286V29.6043C18.5718 31.1486 22.0261 31.7122 24.5489 31.2958C23.9158 30.5292 23.5702 29.5657 23.5718 28.5715C23.5713 27.8643 23.746 27.1679 24.0803 26.5447C24.4146 25.9215 24.898 25.3908 25.4875 25Z" fill="#42526E"/>
<path d="M22.8575 24.2858C24.4354 24.2858 25.7146 23.0066 25.7146 21.4286C25.7146 19.8507 24.4354 18.5715 22.8575 18.5715C21.2795 18.5715 20.0003 19.8507 20.0003 21.4286C20.0003 23.0066 21.2795 24.2858 22.8575 24.2858Z" fill="#42526E"/>
<path fill-rule="evenodd" clip-rule="evenodd" d="M31.4289 28.5715C31.4289 30.5439 29.8299 32.1429 27.8575 32.1429C25.885 32.1429 24.2861 30.5439 24.2861 28.5715C24.2861 26.599 25.885 25 27.8575 25C29.8299 25 31.4289 26.599 31.4289 28.5715ZM27.8389 30.2365C27.5825 30.4936 27.1675 30.4936 26.9103 30.2365L25.9061 29.2329C25.7911 29.1082 25.7288 28.9438 25.7322 28.7742C25.7357 28.6045 25.8046 28.4428 25.9246 28.3229C26.0445 28.2029 26.2063 28.134 26.3759 28.1305C26.5455 28.1271 26.7099 28.1894 26.8346 28.3043L27.3739 28.8429L28.8796 27.3358C29.0045 27.2224 29.1682 27.1613 29.3369 27.1653C29.5055 27.1692 29.6662 27.2379 29.7856 27.357C29.905 27.4762 29.974 27.6367 29.9784 27.8053C29.9827 27.9739 29.922 28.1378 29.8089 28.2629L27.8389 30.2365Z" fill="#42526E"/>
</g>
<defs>
<clipPath id="clip0_2177_40">
<rect width="17.1429" height="17.1429" fill="white" transform="translate(16.4287 16.4286)"/>
</clipPath>
</defs>
</svg>
