<svg width="120" height="120" viewBox="0 0 120 120" fill="none" xmlns="http://www.w3.org/2000/svg">
<g clip-path="url(#clip0_2401_12231)">
<path d="M76.1818 26.9881H43.847C43.1102 26.989 42.4037 27.2893 41.8827 27.8231C41.3617 28.3568 41.0686 29.0805 41.0677 29.8354V103.458L40.6971 103.573L32.7648 106.062C32.3889 106.179 31.9829 106.139 31.6358 105.95C31.2888 105.761 31.0291 105.439 30.9139 105.054L7.31908 26.0978C7.20425 25.7127 7.24339 25.2966 7.42788 24.941C7.61237 24.5855 7.92713 24.3195 8.30297 24.2015L20.5265 20.3671L55.9631 9.255L68.1866 5.42061C68.3726 5.36196 68.5681 5.34146 68.7618 5.3603C68.9556 5.37913 69.1438 5.43692 69.3158 5.53037C69.4877 5.62381 69.64 5.75108 69.7638 5.90487C69.8877 6.05867 69.9807 6.23598 70.0377 6.42666L76.0688 26.6085L76.1818 26.9881Z" fill="#DADADA"/>
<path d="M83.2372 26.6089L75.9682 2.28517C75.8473 1.87989 75.6496 1.503 75.3864 1.17603C75.1233 0.849058 74.7998 0.578417 74.4345 0.379571C74.0692 0.180726 73.6692 0.0575706 73.2574 0.0171484C72.8456 -0.0232738 72.4301 0.019829 72.0346 0.143989L54.849 5.53301L19.4143 16.6471L2.22876 22.038C1.43041 22.2891 0.761937 22.8545 0.370076 23.61C-0.0217846 24.3656 -0.105021 25.2495 0.13864 26.0679L24.9822 109.196C25.1802 109.857 25.5796 110.435 26.1218 110.846C26.664 111.257 27.3206 111.479 27.9951 111.48C28.3073 111.48 28.6177 111.432 28.9159 111.337L40.6966 107.644L41.0672 107.526V107.129L40.6966 107.245L28.8066 110.975C28.1019 111.195 27.3408 111.12 26.6902 110.766C26.0396 110.412 25.5527 109.808 25.3362 109.086L0.494471 25.9559C0.387205 25.5984 0.349821 25.2228 0.384456 24.8505C0.419091 24.4783 0.525063 24.1167 0.696311 23.7864C0.867559 23.4562 1.10072 23.1637 1.38243 22.9259C1.66415 22.6881 1.98888 22.5096 2.33804 22.4005L19.5236 17.0096L54.9584 5.89747L72.1439 0.506552C72.4088 0.423751 72.6841 0.381533 72.961 0.381269C73.5553 0.382636 74.1335 0.578903 74.6109 0.941322C75.0884 1.30374 75.4401 1.81327 75.6144 2.39527L82.8499 26.6089L82.9648 26.9885H83.3502L83.2372 26.6089Z" fill="#3D523D"/>
<path d="M22.7306 24.2635C22.3734 24.2632 22.0258 24.1457 21.7386 23.9282C21.4515 23.7107 21.2399 23.4046 21.135 23.0549L18.7484 15.0688C18.6843 14.8543 18.662 14.6289 18.6829 14.4056C18.7038 14.1823 18.7674 13.9653 18.8702 13.7672C18.9729 13.5691 19.1128 13.3936 19.2817 13.2509C19.4506 13.1081 19.6454 13.0008 19.8548 12.9352L52.4544 2.71069C52.8773 2.57848 53.3341 2.62357 53.7246 2.83606C54.1151 3.04854 54.4073 3.41106 54.5372 3.84405L56.9238 11.8303C57.0527 12.2635 57.0087 12.7315 56.8013 13.1315C56.5939 13.5315 56.2401 13.8309 55.8175 13.964L23.2178 24.1885C23.0599 24.2381 22.8957 24.2634 22.7306 24.2635Z" fill="#3E933E"/>
<path d="M35.2326 8.53377C37.2793 8.53377 38.9384 6.83405 38.9384 4.73734C38.9384 2.64064 37.2793 0.940918 35.2326 0.940918C33.186 0.940918 31.5269 2.64064 31.5269 4.73734C31.5269 6.83405 33.186 8.53377 35.2326 8.53377Z" fill="#3E933E"/>
<path d="M35.2328 7.14201C36.5288 7.14201 37.5795 6.0657 37.5795 4.738C37.5795 3.4103 36.5288 2.33398 35.2328 2.33398C33.9368 2.33398 32.8862 3.4103 32.8862 4.738C32.8862 6.0657 33.9368 7.14201 35.2328 7.14201Z" fill="white"/>
<path d="M111.663 110.509H49.0349C48.6174 110.508 48.217 110.338 47.9218 110.036C47.6265 109.733 47.4604 109.323 47.46 108.895V32.0178C47.4604 31.59 47.6265 31.1799 47.9218 30.8774C48.217 30.5749 48.6174 30.4048 49.0349 30.4043H111.663C112.08 30.4048 112.481 30.5749 112.776 30.8774C113.071 31.1799 113.237 31.59 113.238 32.0178V108.895C113.237 109.323 113.071 109.733 112.776 110.036C112.481 110.338 112.08 110.508 111.663 110.509Z" fill="#E6E6E6"/>
<path d="M82.8496 26.6079H43.8462C43.0112 26.6091 42.2107 26.9495 41.6202 27.5544C41.0297 28.1593 40.6975 28.9794 40.6963 29.8349V107.244L41.0669 107.128V29.8349C41.0678 29.08 41.3609 28.3563 41.8819 27.8225C42.4029 27.2888 43.1094 26.9885 43.8462 26.9876H82.9645L82.8496 26.6079ZM116.85 26.6079H43.8462C43.0112 26.6091 42.2107 26.9495 41.6202 27.5544C41.0297 28.1593 40.6975 28.9794 40.6963 29.8349V116.773C40.6975 117.628 41.0297 118.449 41.6202 119.053C42.2107 119.658 43.0112 119.999 43.8462 120H116.85C117.685 119.999 118.486 119.658 119.076 119.053C119.667 118.449 119.999 117.628 120 116.773V29.8349C119.999 28.9794 119.667 28.1593 119.076 27.5544C118.486 26.9495 117.685 26.6091 116.85 26.6079ZM119.629 116.773C119.629 117.528 119.335 118.252 118.814 118.785C118.293 119.319 117.587 119.619 116.85 119.62H43.8462C43.1094 119.619 42.4029 119.319 41.8819 118.785C41.3609 118.252 41.0678 117.528 41.0669 116.773V29.8349C41.0678 29.08 41.3609 28.3563 41.8819 27.8225C42.4029 27.2888 43.1094 26.9885 43.8462 26.9876H116.85C117.587 26.9885 118.293 27.2888 118.814 27.8225C119.335 28.3563 119.629 29.08 119.629 29.8349V116.773Z" fill="#3D523D"/>
<path d="M97.3951 34.9603H63.3019C62.8598 34.9598 62.4359 34.7797 62.1233 34.4594C61.8106 34.1391 61.6348 33.7049 61.6343 33.2519V24.8998C61.6348 24.4469 61.8106 24.0126 62.1233 23.6923C62.4359 23.3721 62.8598 23.1919 63.3019 23.1914H97.3951C97.8372 23.1919 98.2611 23.3721 98.5737 23.6923C98.8863 24.0126 99.0622 24.4469 99.0627 24.8998V33.2519C99.0622 33.7049 98.8863 34.1391 98.5737 34.4594C98.2611 34.7797 97.8372 34.9598 97.3951 34.9603Z" fill="#3E933E"/>
<path d="M80.3479 23.7608C82.3945 23.7608 84.0536 22.0611 84.0536 19.9644C84.0536 17.8677 82.3945 16.168 80.3479 16.168C78.3012 16.168 76.6421 17.8677 76.6421 19.9644C76.6421 22.0611 78.3012 23.7608 80.3479 23.7608Z" fill="#3E933E"/>
<path d="M80.3475 22.2771C81.5941 22.2771 82.6047 21.2418 82.6047 19.9647C82.6047 18.6876 81.5941 17.6523 80.3475 17.6523C79.1009 17.6523 78.0903 18.6876 78.0903 19.9647C78.0903 21.2418 79.1009 22.2771 80.3475 22.2771Z" fill="white"/>
</g>
<defs>
<clipPath id="clip0_2401_12231">
<rect width="120" height="120" fill="white"/>
</clipPath>
</defs>
</svg>
