<svg width="50" height="50" viewBox="0 0 50 50" fill="none" xmlns="http://www.w3.org/2000/svg">
<g clip-path="url(#clip0_3092_731)">
<rect width="50" height="50" fill="white" fill-opacity="0.01"/>
<path d="M25 50C38.8071 50 50 38.8071 50 25C50 11.1929 38.8071 0 25 0C11.1929 0 0 11.1929 0 25C0 38.8071 11.1929 50 25 50Z" fill="#FFAB00"/>
<path d="M40.9956 27.0124C40.312 0.703794 9.99952 -1.69855 9.35499 27.0124C9.31593 29.1804 9.2964 31.3874 10.5269 33.1257C11.0854 33.921 11.8386 34.5598 12.7144 34.9811C13.4763 35.3506 14.3092 35.5505 15.1558 35.5671C16.8745 35.6257 33.6323 35.3522 35.6245 35.3718C36.3163 35.3997 37.0051 35.266 37.6362 34.9811C38.5256 34.5811 39.2839 33.9379 39.8237 33.1257C41.0737 31.3874 41.0542 29.1804 40.9956 27.0124Z" fill="#0C1F41"/>
<path d="M32.812 40.4694L25.1753 40.0787L17.5581 40.4694C17.4126 40.4824 17.2721 40.5292 17.1479 40.6061L10.2339 45.1764C14.5496 48.3304 19.7614 50.0204 25.1067 49.9993C30.452 49.9783 35.6502 48.2471 39.9409 45.0592L33.2026 40.6061C33.0842 40.532 32.9508 40.4853 32.812 40.4694Z" fill="#FFE380"/>
<path d="M32.3433 40.802C32.1675 41.0364 29.2573 44.9231 24.4331 44.5325C20.5464 44.2395 18.3394 41.3684 18.0073 40.9192C18.9858 40.1972 19.6775 39.1526 19.9604 37.97C20.5269 35.4895 18.9644 33.595 18.7886 33.3801H30.9761C30.8784 33.4973 29.1011 35.9778 30.2339 38.5364C30.6774 39.4972 31.4165 40.2911 32.3433 40.802Z" fill="url(#paint0_linear_3092_731)"/>
<path d="M14.7261 27.4227C16.2147 27.4227 17.4214 26.216 17.4214 24.7274C17.4214 23.2388 16.2147 22.0321 14.7261 22.0321C13.2375 22.0321 12.0308 23.2388 12.0308 24.7274C12.0308 26.216 13.2375 27.4227 14.7261 27.4227Z" fill="#9C6439"/>
<path d="M34.6279 27.4227C36.1165 27.4227 37.3232 26.216 37.3232 24.7274C37.3232 23.2388 36.1165 22.0321 34.6279 22.0321C33.1394 22.0321 31.9326 23.2388 31.9326 24.7274C31.9326 26.216 33.1394 27.4227 34.6279 27.4227Z" fill="#9C6439"/>
<path d="M15.4295 19.3179C15.4099 20.5484 15.3904 21.7398 15.3318 22.8726C15.2732 24.0054 15.2537 23.8297 15.1951 24.9039C15.0388 27.9312 15.1951 28.6929 14.5506 29.4351C13.906 30.1773 13.4959 30.2359 13.242 30.0797C12.9881 29.9234 13.3592 29.1812 13.5154 28.107C13.8865 25.4703 13.0076 22.814 12.9295 22.5992C12.7537 22.0523 12.5388 21.525 12.5584 20.7633C12.5779 20.0015 12.6365 19.2593 13.3592 18.8687C14.0818 18.4781 14.7654 18.7515 15.4295 19.3179Z" fill="#0C1F41"/>
<path d="M33.769 20.0204C33.769 22.0321 33.8667 23.9071 34.0034 25.6258C34.062 26.4852 34.2378 28.4774 35.3315 30.1376C35.4487 30.3133 35.8003 30.8407 35.9565 30.7821C36.1128 30.7235 35.8198 29.8446 35.6831 28.829C35.312 26.1922 36.1714 23.536 36.2495 23.3016C36.3276 23.0672 36.6597 22.2469 36.6206 21.4657C36.6011 20.9969 36.562 19.9813 35.8394 19.5907C35.1167 19.2 34.4136 19.454 33.769 20.0204Z" fill="#0C1F41"/>
<path d="M35.5854 23.7118C33.4956 31.7196 30.7221 37.286 24.7065 37.286C18.6909 37.286 15.3901 30.7235 13.8276 23.7118C12.2065 16.3876 18.7104 10.118 24.7065 10.118C30.7026 10.118 37.4799 16.4462 35.5854 23.7118Z" fill="#9C6439"/>
<path d="M15.3316 17.4425C15.7027 17.9698 15.2925 18.5753 14.8238 20.4307C14.5536 21.3955 14.3706 22.3825 14.2769 23.38C14.1207 25.587 14.7652 26.8956 14.5699 26.9737C14.3746 27.0518 12.7925 24.7472 12.4605 21.7784C12.4019 21.3097 11.9917 17.5792 13.4957 16.9347C13.8161 16.8147 14.1663 16.7992 14.4961 16.8905C14.8259 16.9817 15.1183 17.1749 15.3316 17.4425Z" fill="#0C1F41"/>
<path d="M34.0815 17.1692C33.7104 17.6965 34.1205 18.302 34.5893 20.1575C34.851 21.1232 35.0275 22.1101 35.1166 23.1067C35.2924 25.3137 34.6479 26.6223 34.8432 26.7004C35.0385 26.7786 36.6205 24.4739 36.9526 21.5051C37.0111 21.0364 37.4213 17.3059 35.8979 16.6418C35.5777 16.5315 35.2312 16.523 34.906 16.6174C34.5808 16.7118 34.2928 16.9046 34.0815 17.1692Z" fill="#0C1F41"/>
<path d="M35.3514 18.4188C35.3514 16.5829 35.8397 13.3407 34.8241 11.8759C33.8084 10.411 31.1522 10.7821 29.492 9.98132C27.8319 9.18054 26.6209 6.89539 24.7459 6.89539C22.8709 6.89539 21.5428 9.25867 19.9998 9.98132C18.4569 10.704 15.6639 10.4501 14.6678 11.8759C13.6717 13.3016 14.1405 16.5829 14.1405 18.4188C15.6543 18.7552 17.1992 18.9319 18.7498 18.9462C22.0893 18.9509 25.3892 18.2242 28.4178 16.8173C29.3381 17.6581 30.4598 18.2473 31.6745 18.5278C32.8891 18.8084 34.1555 18.7708 35.3514 18.4188Z" fill="#0C1F41"/>
</g>
<defs>
<linearGradient id="paint0_linear_3092_731" x1="25.1772" y1="44.5676" x2="25.1772" y2="33.3762" gradientUnits="userSpaceOnUse">
<stop stop-color="#9C6439"/>
<stop offset="1" stop-color="#875731"/>
</linearGradient>
<clipPath id="clip0_3092_731">
<rect width="50" height="50" fill="white"/>
</clipPath>
</defs>
</svg>
