<svg width="50" height="50" viewBox="0 0 50 50" fill="none" xmlns="http://www.w3.org/2000/svg">
<circle opacity="0.2" cx="25" cy="25" r="25" fill="#DE350B"/>
<g clip-path="url(#clip0_2177_48)">
<rect width="17.1429" height="17.1429" transform="translate(16.4287 16.4286)" fill="white" fill-opacity="0.01"/>
<path d="M27.8575 25C29.041 25 30.0003 24.0407 30.0003 22.8572C30.0003 21.6737 29.041 20.7143 27.8575 20.7143C26.674 20.7143 25.7146 21.6737 25.7146 22.8572C25.7146 24.0407 26.674 25 27.8575 25Z" fill="#42526E"/>
<path d="M22.1432 22.8572C23.3267 22.8572 24.2861 21.8978 24.2861 20.7143C24.2861 19.5309 23.3267 18.5715 22.1432 18.5715C20.9597 18.5715 20.0003 19.5309 20.0003 20.7143C20.0003 21.8978 20.9597 22.8572 22.1432 22.8572Z" fill="#42526E"/>
<path fill-rule="evenodd" clip-rule="evenodd" d="M24.2861 27.1429C24.2861 26.3536 24.9196 25.7143 25.7146 25.7143H30.0003C30.7896 25.7143 31.4289 26.3465 31.4289 27.1429V29.8072C31.4289 31.9693 24.2861 31.9693 24.2861 29.8072V27.1429Z" fill="#42526E"/>
<path fill-rule="evenodd" clip-rule="evenodd" d="M25.7146 25C25.7149 24.8124 25.6782 24.6265 25.6065 24.453C25.5348 24.2796 25.4296 24.122 25.2968 23.9893C25.1641 23.8566 25.0065 23.7513 24.8331 23.6796C24.6596 23.6079 24.4737 23.5712 24.2861 23.5715H20.0003C19.2053 23.5715 18.5718 24.2122 18.5718 25.0022V27.735C18.5718 29.1072 21.4675 29.5336 23.5718 29.1522V27.1472C23.5713 26.8656 23.6263 26.5867 23.7336 26.3264C23.841 26.0661 23.9985 25.8295 24.1973 25.6302C24.3961 25.4308 24.6323 25.2725 24.8922 25.1644C25.1522 25.0563 25.4309 25.0004 25.7125 25H25.7146Z" fill="#42526E"/>
</g>
<defs>
<clipPath id="clip0_2177_48">
<rect width="17.1429" height="17.1429" fill="white" transform="translate(16.4287 16.4286)"/>
</clipPath>
</defs>
</svg>
