<svg width="50" height="50" viewBox="0 0 50 50" fill="none" xmlns="http://www.w3.org/2000/svg">
<g clip-path="url(#clip0_3092_677)">
<rect width="50" height="50" fill="white" fill-opacity="0.01"/>
<path d="M25 50C38.8071 50 50 38.8071 50 25C50 11.1929 38.8071 0 25 0C11.1929 0 0 11.1929 0 25C0 38.8071 11.1929 50 25 50Z" fill="#6553C0"/>
<path d="M34.9219 44.0817C28.2471 41.8152 21.0108 41.8152 14.3359 44.0817C14.3359 42.6755 14.3359 41.2497 14.3164 39.8435C17.5679 38.3871 21.092 37.6392 24.6547 37.6493C28.2175 37.6594 31.7373 38.4273 34.9805 39.902L34.9219 44.0817Z" fill="#403294"/>
<path d="M21.2695 45.2927V49.7263C22.505 49.9053 23.7516 49.9966 25 49.9998C25.9526 49.9969 26.9044 49.9448 27.8516 49.8435L27.7734 45.2927H21.2695Z" fill="#6554C0"/>
<path d="M14.1068 29.1005C15.6127 28.7194 16.4494 26.8931 15.9758 25.0213C15.5021 23.1494 13.8974 21.9409 12.3916 22.3219C10.8858 22.7029 10.049 24.5293 10.5227 26.4011C10.9963 28.273 12.601 29.4815 14.1068 29.1005Z" fill="#DFB28B"/>
<path d="M38.5598 26.4331C39.0334 24.5612 38.1967 22.7349 36.6908 22.3539C35.185 21.9728 33.5803 23.1814 33.1066 25.0532C32.633 26.9251 33.4697 28.7514 34.9756 29.1324C36.4814 29.5135 38.0861 28.3049 38.5598 26.4331Z" fill="#DFB28B"/>
<path d="M34.1021 42.2842C33.8872 42.5771 30.1958 47.3428 24.1606 46.874C19.2583 46.5029 16.4849 42.9873 16.0747 42.4404C17.0607 41.427 17.7672 40.1754 18.1255 38.8076C18.5671 37.0033 18.4094 35.1042 17.6763 33.3975L32.0708 33.0459C31.856 33.4951 30.645 36.1123 31.6997 39.0225C32.176 40.315 33.009 41.4459 34.1021 42.2842Z" fill="url(#paint0_linear_3092_677)"/>
<path d="M24.6291 7.4021C30.2541 7.44116 33.6916 11.2498 34.219 11.8552C37.7932 15.9568 37.4221 20.8591 37.344 21.8748C37.1291 24.4138 36.719 26.4255 34.7658 30.5076C31.9729 37.0701 26.9143 38.3787 24.6291 38.4763C22.344 38.574 16.426 35.3904 14.4924 30.5076C12.5393 26.4255 12.1291 24.4138 11.9338 21.8748C11.8557 20.8591 11.4651 15.9568 15.0393 11.8552C15.5666 11.2498 19.0041 7.44116 24.6291 7.4021Z" fill="#ECC19C"/>
<path d="M32.1484 9.96094L31.9141 11.5234C32.8679 13.075 33.6661 14.7171 34.2969 16.4258C35.0586 18.5352 35.4492 19.5703 35.625 20.8789C35.8789 22.5391 35.7617 23.6914 36.5039 24.1211C36.6637 24.2198 36.8442 24.28 37.0312 24.2969C37.1875 23.4766 37.2656 22.7148 37.3437 21.875C37.4219 21.0352 37.793 15.957 34.2187 11.8555C33.5995 11.1506 32.9053 10.5153 32.1484 9.96094Z" fill="#172B4D"/>
<path d="M15.0393 11.8555C11.4651 15.957 11.8557 20.8594 11.9338 21.875C11.9886 22.6879 12.093 23.4967 12.2463 24.2969C12.4266 24.2771 12.6001 24.217 12.7541 24.1211C13.4963 23.6914 13.3791 22.5391 13.633 20.8789C13.8283 19.5703 14.1994 18.5352 14.9611 16.4258C15.5919 14.7137 16.3969 13.071 17.3635 11.5234L17.1096 9.96094C16.3574 10.5211 15.6638 11.1559 15.0393 11.8555Z" fill="#172B4D"/>
<path d="M34.805 12.9295C35.1566 10.5467 31.2308 7.81232 27.9886 6.97248C25.723 6.38654 23.8285 6.7381 22.7347 6.93341C21.1527 7.24591 17.3246 7.9881 15.391 10.8787C14.6488 11.9725 14.2582 13.2811 12.9105 13.7108C12.0707 13.9842 11.2308 13.6912 10.9574 14.16C10.6839 14.6287 11.1136 15.2147 11.2894 15.4686C11.7808 16.1981 12.503 16.7415 13.3402 17.0115C14.2386 17.3631 15.5472 17.6365 17.4613 17.3826C20.2347 17.0115 20.7425 15.9764 22.9886 15.9959C24.2972 16.0154 24.6683 16.367 25.8207 16.6014C29.434 17.285 34.434 15.41 34.805 12.9295Z" fill="#172B4D"/>
<path d="M13.6328 42.2074L12.7734 42.598L9.33594 44.4926C12.7262 47.2103 16.7643 49.0005 21.0547 49.6879L13.2227 43.5355L13.6328 42.2074Z" fill="#403294"/>
<path d="M35.7031 42.1875L36.1133 43.5352L28.9453 49.6875C33.1407 49.0275 37.0957 47.2989 40.4297 44.668L36.8164 42.6953C36.4604 42.4947 36.088 42.3248 35.7031 42.1875Z" fill="#403294"/>
<path d="M17.5781 41.582L14.3164 39.8438L13.6328 42.207C14.4172 41.8897 15.2488 41.7049 16.0937 41.6602L17.5781 41.582Z" fill="#403294"/>
<path d="M21.25 45.2927H21.2695V43.574L17.5781 41.5818L16.0938 41.6599C15.2488 41.7046 14.4172 41.8894 13.6328 42.2068L13.2227 43.5349L21.0547 49.6873L21.25 49.7263V45.2927Z" fill="#403294"/>
<path d="M21.2505 45.2927V49.7263L21.27 45.2927H21.2505Z" fill="#403294"/>
<path d="M35.7031 42.1875L35.0195 39.8438L31.4258 41.5625L33.1836 41.6602C34.0465 41.6979 34.8975 41.876 35.7031 42.1875Z" fill="#403294"/>
<path d="M35.7026 42.1869C34.897 41.8754 34.046 41.6973 33.1831 41.6595L31.4253 41.5619L27.7534 43.3197V45.2924H27.8511V49.8431L28.9253 49.6869L36.0933 43.5345L35.7026 42.1869Z" fill="#403294"/>
<path d="M27.8711 45.2927H27.7734L27.8516 49.8435H27.8711V45.2927Z" fill="#403294"/>
</g>
<defs>
<linearGradient id="paint0_linear_3092_677" x1="25.0825" y1="45.9697" x2="25.0825" y2="27.0088" gradientUnits="userSpaceOnUse">
<stop stop-color="#ECC19C"/>
<stop offset="1" stop-color="#CEA28B"/>
</linearGradient>
<clipPath id="clip0_3092_677">
<rect width="50" height="50" fill="white"/>
</clipPath>
</defs>
</svg>
