<svg width="32" height="44" viewBox="0 0 32 44" fill="none" xmlns="http://www.w3.org/2000/svg">
<g clip-path="url(#clip0_3092_674)">
<rect width="32" height="44" fill="white" fill-opacity="0.01"/>
<path fill-rule="evenodd" clip-rule="evenodd" d="M2.66683 0.34375H21.3382C21.6519 0.343831 21.9623 0.409139 22.251 0.53577C22.5396 0.662401 22.8006 0.847755 23.0182 1.08075L31.0142 9.64013C31.4331 10.0887 31.667 10.6873 31.6668 11.3101V41.25C31.6668 41.8882 31.421 42.5002 30.9834 42.9515C30.5458 43.4027 29.9523 43.6562 29.3335 43.6562H2.66683C2.04799 43.6562 1.4545 43.4027 1.01691 42.9515C0.579329 42.5002 0.333496 41.8882 0.333496 41.25V2.75C0.333496 2.11182 0.579329 1.49978 1.01691 1.04852C1.4545 0.597265 2.04799 0.34375 2.66683 0.34375Z" fill="white" stroke="#091E42" stroke-opacity="0.08" stroke-width="0.6875"/>
<path fill-rule="evenodd" clip-rule="evenodd" d="M10.436 22.1354V20.8952H11.112C11.5387 20.8952 11.7473 21.098 11.7473 21.5139C11.7473 21.8783 11.6793 22.1354 10.812 22.1354H10.436ZM15.3273 23.8872H15.8447C16.4213 23.8872 17.012 23.7105 17.012 22.3988C17.012 21.0767 16.388 20.9069 15.8447 20.9069H15.3273V23.8872ZM10.138 25.2003H9.298C9.2189 25.2001 9.14311 25.1676 9.08724 25.1099C9.03137 25.0521 9 24.9739 9 24.8923V19.9011C9 19.7319 9.13333 19.5938 9.298 19.5938H11.238C12.3913 19.5938 13.198 20.383 13.198 21.5139C13.198 22.66 12.4087 23.4307 11.234 23.4307H10.436V24.8923C10.436 25.0621 10.3027 25.2003 10.138 25.2003ZM15.9327 25.2003H14.19C14.1109 25.2001 14.0351 25.1676 13.9792 25.1099C13.9234 25.0521 13.892 24.9739 13.892 24.8923V19.9011C13.892 19.7319 14.0253 19.5938 14.19 19.5938H15.9327C17.572 19.5938 18.4747 20.5858 18.4747 22.3884C18.4747 24.2014 17.572 25.2003 15.9327 25.2003ZM20.4247 25.2003H19.5847C19.5055 25.2003 19.4295 25.1679 19.3735 25.1101C19.3175 25.0523 19.286 24.974 19.286 24.8923V19.9011C19.286 19.7319 19.4193 19.5938 19.584 19.5938H22.702C22.866 19.5938 23 19.7319 23 19.9011V20.6064C23 20.6468 22.9923 20.6868 22.9773 20.724C22.9623 20.7613 22.9404 20.7952 22.9127 20.8237C22.885 20.8523 22.8522 20.8749 22.816 20.8904C22.7799 20.9058 22.7411 20.9138 22.702 20.9138H20.7227V21.8281H22.5053C22.67 21.8281 22.8033 21.9656 22.8033 22.1354V22.8305C22.8033 22.9996 22.67 23.1378 22.5053 23.1378H20.7227V24.8923C20.7227 25.0621 20.5893 25.2003 20.4247 25.2003Z" fill="#FF5630"/>
</g>
<defs>
<clipPath id="clip0_3092_674">
<rect width="32" height="44" fill="white"/>
</clipPath>
</defs>
</svg>
