<svg width="50" height="50" viewBox="0 0 50 50" fill="none" xmlns="http://www.w3.org/2000/svg">
<circle opacity="0.2" cx="25" cy="25" r="25" fill="#0052CC"/>
<g clip-path="url(#clip0_2159_442)">
<rect width="17.1429" height="17.1429" transform="translate(16.4287 16.4286)" fill="white" fill-opacity="0.01"/>
<path fill-rule="evenodd" clip-rule="evenodd" d="M22.2331 23.5714H19.286C18.491 23.5714 17.8574 24.2107 17.8574 25V27.6643C17.8574 28.6 19.196 29.1307 20.7146 29.2572V27.14C20.7157 26.5723 20.9419 26.0282 21.3436 25.6271C21.7453 25.2259 22.2897 25.0004 22.8574 25H23.1103C22.6816 24.6222 22.3761 24.1246 22.2331 23.5714ZM27.7674 23.5714H30.7146C31.5039 23.5714 32.1431 24.2036 32.1431 25V27.6643C32.1431 28.6 30.8046 29.1307 29.286 29.2572V27.14C29.2852 26.5722 29.0591 26.0279 28.6574 25.6266C28.2556 25.2254 27.711 25 27.1431 25H26.8903C27.3189 24.6222 27.6245 24.1246 27.7674 23.5714ZM23.5481 20.3957C23.4824 19.9593 23.2835 19.5539 22.9787 19.2348C22.6739 18.9156 22.278 18.6984 21.845 18.6128C21.4121 18.5271 20.9633 18.5772 20.5599 18.7563C20.1565 18.9353 19.8183 19.2345 19.5913 19.613C19.3644 19.9915 19.2599 20.4308 19.292 20.871C19.3242 21.3111 19.4914 21.7306 19.7709 22.0721C20.0504 22.4136 20.4286 22.6605 20.8537 22.779C21.2788 22.8975 21.7301 22.8819 22.146 22.7343C22.1662 22.2585 22.3051 21.7953 22.55 21.3869C22.7949 20.9785 23.138 20.6378 23.5481 20.3957ZM27.8553 22.7343C28.2711 22.8819 28.7224 22.8975 29.1474 22.7789C29.5725 22.6604 29.9505 22.4136 30.23 22.0722C30.5095 21.7307 30.6768 21.3113 30.709 20.8713C30.7412 20.4312 30.6368 19.9919 30.41 19.6134C30.1832 19.2349 29.8451 18.9356 29.4419 18.7565C29.0386 18.5774 28.5899 18.5271 28.157 18.6125C27.7241 18.6979 27.3281 18.9149 27.0232 19.2338C26.7182 19.5527 26.5191 19.958 26.4531 20.3943C26.8637 20.6362 27.2071 20.9771 27.452 21.3859C27.6969 21.7946 27.8356 22.2582 27.8553 22.7343Z" fill="#42526E"/>
<path fill-rule="evenodd" clip-rule="evenodd" d="M21.4289 27.1429C21.4289 26.3536 22.0624 25.7143 22.8574 25.7143H27.1431C27.9324 25.7143 28.5717 26.3464 28.5717 27.1429V29.8072C28.5717 31.9693 21.4289 31.9693 21.4289 29.8072V27.1429Z" fill="#42526E"/>
<path d="M25.0003 25C26.1837 25 27.1431 24.0406 27.1431 22.8572C27.1431 21.6737 26.1837 20.7143 25.0003 20.7143C23.8168 20.7143 22.8574 21.6737 22.8574 22.8572C22.8574 24.0406 23.8168 25 25.0003 25Z" fill="#42526E"/>
</g>
<defs>
<clipPath id="clip0_2159_442">
<rect width="17.1429" height="17.1429" fill="white" transform="translate(16.4287 16.4286)"/>
</clipPath>
</defs>
</svg>
