<svg width="28" height="28" viewBox="0 0 28 28" fill="none" xmlns="http://www.w3.org/2000/svg">
<circle cx="14" cy="14" r="14" fill="#B3D4FF"/>
<rect width="18" height="18" transform="translate(5 5)" fill="white" fill-opacity="0.01"/>
<path d="M8.75 16.9932C8.75 16.9985 19.2538 17 19.2538 17C19.2493 17 19.25 11.0067 19.25 11.0067C19.25 11.0015 8.74625 11 8.74625 11C8.75075 11 8.75 16.9932 8.75 16.9932ZM7.25 11.0075C7.25 10.1743 7.91975 9.5 8.74625 9.5H19.2538C20.0803 9.5 20.75 10.1765 20.75 11.0067V16.9932C20.75 17.8258 20.0803 18.5 19.2538 18.5H8.74625C8.34815 18.4982 7.96703 18.3386 7.68651 18.0561C7.40599 17.7736 7.24901 17.3914 7.25 16.9932V11.0075Z" fill="white"/>
<path fill-rule="evenodd" clip-rule="evenodd" d="M13.0055 15.7482C13.2755 16.0182 13.7113 16.0182 13.9805 15.7482L16.049 13.676C16.1678 13.5446 16.2315 13.3726 16.2269 13.1955C16.2224 13.0184 16.1499 12.8499 16.0245 12.7248C15.8991 12.5997 15.7304 12.5276 15.5533 12.5235C15.3763 12.5193 15.2044 12.5834 15.0733 12.7025L13.4923 14.285L12.926 13.7195C12.795 13.5988 12.6224 13.5334 12.4443 13.537C12.2662 13.5406 12.0964 13.613 11.9704 13.7389C11.8445 13.8649 11.7721 14.0347 11.7685 14.2128C11.7649 14.3909 11.8303 14.5635 11.951 14.6945L13.0055 15.7482Z" fill="white"/>
</svg>
