<svg width="24" height="24" viewBox="0 0 24 24" fill="none" xmlns="http://www.w3.org/2000/svg">
<rect width="24" height="24" fill="white" fill-opacity="0.01"/>
<path d="M17.2219 11.5571L12.1099 16.6401C11.5464 17.1989 10.7852 17.5128 9.99169 17.5135C9.19814 17.5143 8.43635 17.2018 7.87187 16.6441C7.59474 16.368 7.37488 16.0399 7.22493 15.6785C7.07498 15.3172 6.99788 14.9299 6.99807 14.5387C6.99825 14.1475 7.07572 13.7602 7.22601 13.399C7.37631 13.0378 7.59648 12.7099 7.87387 12.4341L13.3389 7.00008C13.6667 6.6725 14.111 6.48832 14.5745 6.48795C15.0379 6.48757 15.4825 6.67103 15.8109 6.99808C16.4939 7.67708 16.4949 8.77308 15.8129 9.45008L10.6869 14.5451C10.6406 14.5907 10.5858 14.6267 10.5255 14.651C10.4653 14.6753 10.4009 14.6875 10.3359 14.6869C10.271 14.6862 10.2068 14.6728 10.147 14.6472C10.0873 14.6217 10.0332 14.5846 9.98786 14.5381C9.9409 14.4926 9.90356 14.4381 9.87806 14.3779C9.85256 14.3177 9.83941 14.253 9.83941 14.1876C9.83941 14.1222 9.85256 14.0575 9.87806 13.9973C9.90356 13.937 9.9409 13.8826 9.98786 13.8371L14.7519 9.10208C14.8214 9.03326 14.8766 8.95134 14.9143 8.86106C14.952 8.77077 14.9714 8.67391 14.9714 8.57608C14.9714 8.47825 14.952 8.38138 14.9143 8.2911C14.8766 8.20081 14.8214 8.11889 14.7519 8.05008C14.6111 7.91072 14.421 7.83255 14.2229 7.83255C14.0248 7.83255 13.8347 7.91072 13.6939 8.05008L8.92987 12.7851C8.74407 12.9683 8.59654 13.1867 8.49585 13.4275C8.39515 13.6682 8.3433 13.9266 8.3433 14.1876C8.3433 14.4486 8.39515 14.7069 8.49585 14.9477C8.59654 15.1885 8.74407 15.4068 8.92987 15.5901C9.71087 16.3671 10.9679 16.3701 11.7459 15.5971L16.8719 10.5031C17.1728 10.2048 17.4117 9.84974 17.5746 9.45854C17.7375 9.06733 17.8212 8.64772 17.821 8.22395C17.8207 7.80019 17.7364 7.38068 17.573 6.98969C17.4095 6.59871 17.1702 6.244 16.8689 5.94608C16.259 5.33978 15.4339 4.99963 14.574 5C13.714 5.00038 12.8892 5.34125 12.2799 5.94808L6.81387 11.3811C6.39758 11.7947 6.06719 12.2865 5.84171 12.8283C5.61622 13.37 5.50009 13.9511 5.5 14.5379C5.49991 15.1247 5.61585 15.7057 5.84117 16.2476C6.06648 16.7894 6.39671 17.2813 6.81287 17.6951C7.65899 18.5318 8.80119 19.0008 9.99119 19.0001C11.1812 18.9993 12.3228 18.5289 13.1679 17.6911L18.2809 12.6101C18.3506 12.5412 18.4059 12.4593 18.4437 12.3689C18.4814 12.2785 18.5009 12.1815 18.5009 12.0836C18.5009 11.9856 18.4814 11.8886 18.4437 11.7983C18.4059 11.7079 18.3506 11.6259 18.2809 11.5571C18.14 11.4174 17.9497 11.3391 17.7514 11.3391C17.553 11.3391 17.3627 11.4174 17.2219 11.5571Z" fill="#42526E"/>
</svg>
