<svg width="14" height="15" viewBox="0 0 14 15" fill="none" xmlns="http://www.w3.org/2000/svg">
<path d="M3.41406 8.65708L7.3641 12.6071C7.5417 12.7966 7.6387 13.0477 7.6345 13.3074C7.6303 13.5671 7.5252 13.8149 7.3415 13.9985C7.1578 14.1821 6.9098 14.287 6.6501 14.291C6.3905 14.2951 6.1394 14.1979 5.9501 14.0201L0.293063 8.36408C0.199873 8.27148 0.125923 8.16128 0.0754633 8.03998C0.0250033 7.91858 -0.000976562 7.78848 -0.000976562 7.65708C-0.000976562 7.52568 0.0250033 7.39558 0.0754633 7.27428C0.125923 7.15288 0.199873 7.04278 0.293063 6.95008L5.9501 1.29308C6.0423 1.19757 6.1526 1.12139 6.2747 1.06898C6.3967 1.01657 6.5279 0.98899 6.6607 0.98783C6.7934 0.98668 6.9251 1.01198 7.048 1.06226C7.1709 1.11254 7.2826 1.1868 7.3765 1.28069C7.4703 1.37458 7.5446 1.48623 7.5949 1.60913C7.6452 1.73203 7.6705 1.86371 7.6693 1.99649C7.6682 2.12927 7.6406 2.26049 7.5882 2.38249C7.5358 2.50449 7.4596 2.61484 7.3641 2.70708L3.41406 6.65708H13.0001C13.2653 6.65708 13.5196 6.76248 13.7072 6.94998C13.8947 7.13748 14.0001 7.39188 14.0001 7.65708C14.0001 7.92228 13.8947 8.17668 13.7072 8.36418C13.5196 8.55168 13.2653 8.65708 13.0001 8.65708H3.41406Z" fill="#3E933E"/>
</svg>
