<svg width="12" height="3" viewBox="0 0 12 3" fill="none" xmlns="http://www.w3.org/2000/svg">
<path fill-rule="evenodd" clip-rule="evenodd" d="M6 3C5.80302 3 5.60796 2.9612 5.42597 2.88582C5.24399 2.81044 5.07863 2.69995 4.93934 2.56066C4.80005 2.42137 4.68956 2.25601 4.61418 2.07403C4.5388 1.89204 4.5 1.69698 4.5 1.5C4.5 1.30302 4.5388 1.10796 4.61418 0.925975C4.68956 0.743986 4.80005 0.578628 4.93934 0.43934C5.07863 0.300052 5.24399 0.189563 5.42597 0.114181C5.60796 0.0387985 5.80302 -5.87054e-09 6 0C6.39782 1.18561e-08 6.77936 0.158035 7.06066 0.43934C7.34196 0.720644 7.5 1.10218 7.5 1.5C7.5 1.89782 7.34196 2.27936 7.06066 2.56066C6.77936 2.84196 6.39782 3 6 3ZM1.5 3C1.30302 3 1.10796 2.9612 0.925975 2.88582C0.743986 2.81044 0.578628 2.69995 0.43934 2.56066C0.300052 2.42137 0.189563 2.25601 0.114181 2.07403C0.0387985 1.89204 0 1.69698 0 1.5C0 1.30302 0.0387985 1.10796 0.114181 0.925975C0.189563 0.743986 0.300052 0.578628 0.43934 0.43934C0.578628 0.300052 0.743986 0.189563 0.925975 0.114181C1.10796 0.0387985 1.30302 -5.87054e-09 1.5 0C1.89782 1.18561e-08 2.27936 0.158035 2.56066 0.43934C2.84196 0.720644 3 1.10218 3 1.5C3 1.89782 2.84196 2.27936 2.56066 2.56066C2.27936 2.84196 1.89782 3 1.5 3ZM10.5 3C10.303 3 10.108 2.9612 9.92597 2.88582C9.74399 2.81044 9.57863 2.69995 9.43934 2.56066C9.30005 2.42137 9.18956 2.25601 9.11418 2.07403C9.0388 1.89204 9 1.69698 9 1.5C9 1.30302 9.0388 1.10796 9.11418 0.925975C9.18956 0.743986 9.30005 0.578628 9.43934 0.43934C9.57863 0.300052 9.74399 0.189563 9.92597 0.114181C10.108 0.0387985 10.303 -5.87054e-09 10.5 0C10.8978 1.18561e-08 11.2794 0.158035 11.5607 0.43934C11.842 0.720644 12 1.10218 12 1.5C12 1.89782 11.842 2.27936 11.5607 2.56066C11.2794 2.84196 10.8978 3 10.5 3Z" fill="#42526E"/>
</svg>
