<svg width="24" height="24" viewBox="0 0 24 24" fill="none" xmlns="http://www.w3.org/2000/svg">
<rect width="24" height="24" fill="white" fill-opacity="0.01"/>
<path d="M11.7541 11.1348C11.7748 11.1555 11.7948 11.1769 11.8139 11.199L9.77778 15.34H8.77778V15.3408V17.5924C7.46102 17.7336 6.03286 17.6729 4.88876 17.4058C4.19111 17.2429 3.6732 17.0201 3.35279 16.7812C3.05007 16.5554 3 16.3821 3 16.2544V12.0033C3 11.3225 3.54207 10.7778 4.22222 10.7778L10.8889 10.7778L10.8904 10.7778C11.0508 10.7775 11.2096 10.8089 11.3578 10.8702C11.506 10.9315 11.6407 11.0214 11.7541 11.1348ZM18.7778 8.66667C18.7778 9.95533 17.7331 11 16.4444 11C15.1558 11 14.1111 9.95533 14.1111 8.66667C14.1111 7.378 15.1558 6.33333 16.4444 6.33333C17.7331 6.33333 18.7778 7.378 18.7778 8.66667ZM9.88889 5.33333C9.88889 6.622 8.84422 7.66667 7.55556 7.66667C6.26689 7.66667 5.22222 6.622 5.22222 5.33333C5.22222 4.04467 6.26689 3 7.55556 3C8.84422 3 9.88889 4.04467 9.88889 5.33333ZM11.8889 15.3333C11.8889 14.6552 12.4293 14.1111 13.1111 14.1111H19.7778C20.4565 14.1111 21 14.65 21 15.3333V19.4778C21 19.6693 20.8434 20.0574 19.8896 20.4423C19.0036 20.7999 17.7517 21.0003 16.4444 21.0003C15.1372 21.0003 13.8853 20.7999 12.9993 20.4423C12.0455 20.0574 11.8889 19.6693 11.8889 19.4778V15.3333Z" stroke="#DEEBFF" stroke-width="2"/>
</svg>
