<svg width="34" height="24" viewBox="0 0 34 24" fill="none" xmlns="http://www.w3.org/2000/svg">
<path d="M0 2.11765C0 0.948103 1.14167 0 2.55 0H22.1C23.5083 0 24.65 0.948103 24.65 2.11765C24.65 3.28719 23.5083 4.23529 22.1 4.23529H2.55C1.14167 4.23529 0 3.28719 0 2.11765Z" fill="#253858"/>
<path d="M0 12C0 10.8305 1.14167 9.88235 2.55 9.88235H31.45C32.8583 9.88235 34 10.8305 34 12C34 13.1695 32.8583 14.1176 31.45 14.1176H2.55C1.14167 14.1176 0 13.1695 0 12Z" fill="#253858"/>
<path d="M0 21.8824C0 20.7128 1.14167 19.7647 2.55 19.7647H17C18.4083 19.7647 19.55 20.7128 19.55 21.8824C19.55 23.0519 18.4083 24 17 24H2.55C1.14167 24 0 23.0519 0 21.8824Z" fill="#253858"/>
</svg>
