<svg width="28" height="28" viewBox="0 0 28 28" fill="none" xmlns="http://www.w3.org/2000/svg">
<circle cx="14" cy="14" r="14" fill="#B3D4FF"/>
<rect width="18" height="18" transform="translate(5 5)" fill="white" fill-opacity="0.01"/>
<path d="M9.5 12.5H11.7155C11.9144 12.5 12.1052 12.579 12.2458 12.7196C12.3865 12.8603 12.4655 13.0511 12.4655 13.25C12.4655 13.4489 12.3865 13.6397 12.2458 13.7803C12.1052 13.921 11.9144 14 11.7155 14H8.82425C8.60558 13.9998 8.39593 13.9128 8.24137 13.7581C8.08682 13.6034 8 13.3937 8 13.175V10.25C8 10.0511 8.07902 9.8603 8.21967 9.71965C8.36032 9.579 8.55109 9.49998 8.75 9.49998C8.94891 9.49998 9.13968 9.579 9.28033 9.71965C9.42098 9.8603 9.5 10.0511 9.5 10.25V12.5Z" fill="white"/>
<path d="M10.5425 12.5675H8.975C9.32257 11.2211 10.127 10.0373 11.2507 9.21836C12.3744 8.3994 13.7477 7.99616 15.1358 8.07756C16.5239 8.15895 17.8406 8.71994 18.8609 9.66462C19.8812 10.6093 20.5417 11.879 20.7295 13.2568C20.9174 14.6345 20.6209 16.0347 19.8907 17.218C19.1605 18.4014 18.042 19.2943 16.7263 19.7444C15.4107 20.1944 13.9796 20.1735 12.6777 19.6852C11.3757 19.1969 10.2838 18.2716 9.5885 17.0675H10.88V16.3025C11.3901 17.1936 12.1896 17.8834 13.1458 18.2575C14.102 18.6316 15.1574 18.6675 16.1368 18.3591C17.1161 18.0508 17.9606 17.4168 18.53 16.5623C19.0994 15.7079 19.3595 14.6845 19.2671 13.6619C19.1747 12.6393 18.7354 11.679 18.022 10.9405C17.3087 10.202 16.3642 9.72962 15.3454 9.60182C14.3267 9.47403 13.2948 9.69849 12.4212 10.2379C11.5475 10.7774 10.8846 11.5994 10.5425 12.5675Z" fill="white"/>
<path d="M10.25 17.4575C10.6642 17.4575 11 17.1217 11 16.7075C11 16.2933 10.6642 15.9575 10.25 15.9575C9.83579 15.9575 9.5 16.2933 9.5 16.7075C9.5 17.1217 9.83579 17.4575 10.25 17.4575Z" fill="white"/>
</svg>
