<svg width="24" height="24" viewBox="0 0 24 24" fill="none" xmlns="http://www.w3.org/2000/svg">
<path fill-rule="evenodd" clip-rule="evenodd" d="M11.7014 16.7007C8.93839 16.7007 6.69939 14.4607 6.69939 11.6987C6.69939 8.93569 8.93839 6.69669 11.7014 6.69669C14.4644 6.69669 16.7034 8.93569 16.7034 11.6987C16.7034 14.4607 14.4644 16.7007 11.7014 16.7007ZM20.0694 13.5837C19.2864 13.3117 18.7234 12.5747 18.7234 11.6987C18.7234 10.8227 19.2864 10.0857 20.0684 9.81369C20.3054 9.73169 20.4514 9.48069 20.3834 9.23969C20.1844 8.53569 19.9014 7.86869 19.5474 7.24669C19.4294 7.03869 19.1704 6.96169 18.9494 7.05169C18.5644 7.20969 18.1194 7.25069 17.6584 7.13269C16.9844 6.95869 16.4334 6.40969 16.2554 5.73669C16.1334 5.27369 16.1744 4.82669 16.3314 4.43969C16.4204 4.21969 16.3434 3.96069 16.1354 3.84269C15.5184 3.49369 14.8564 3.21369 14.1604 3.01669C13.9184 2.94869 13.6684 3.09369 13.5864 3.33069C13.3144 4.11369 12.5774 4.67669 11.7014 4.67669C10.8264 4.67669 10.0884 4.11369 9.81739 3.33169C9.73439 3.09469 9.48339 2.94869 9.24239 3.01669C8.53439 3.21669 7.86339 3.50169 7.23839 3.85869C7.03739 3.97369 6.95239 4.22569 7.04039 4.44069C7.18739 4.80169 7.23239 5.21369 7.13839 5.64369C6.98339 6.34969 6.42439 6.94069 5.72539 7.12769C5.26739 7.25069 4.82739 7.21169 4.44539 7.05969C4.22539 6.97169 3.96739 7.04969 3.85039 7.25569C3.49739 7.87769 3.21539 8.54569 3.01739 9.24969C2.94939 9.48869 3.09239 9.73669 3.32539 9.82169C4.09639 10.0997 4.64839 10.8317 4.64839 11.6987C4.64839 12.5657 4.09639 13.2977 3.32439 13.5757C3.09139 13.6597 2.94939 13.9077 3.01639 14.1467C3.19339 14.7737 3.43839 15.3727 3.73939 15.9367C3.85839 16.1587 4.13439 16.2347 4.36339 16.1297C4.95839 15.8567 5.70639 15.8657 6.46739 16.3677C6.58439 16.4447 6.69239 16.5527 6.76939 16.6687C7.29639 17.4677 7.28139 18.2487 6.96739 18.8557C6.85239 19.0787 6.91939 19.3567 7.13539 19.4837C7.78939 19.8677 8.49739 20.1707 9.24439 20.3807C9.48539 20.4487 9.73339 20.3047 9.81439 20.0677C10.0834 19.2817 10.8234 18.7147 11.7014 18.7147C12.5794 18.7147 13.3194 19.2817 13.5884 20.0677C13.6694 20.3037 13.9174 20.4487 14.1584 20.3807C14.8954 20.1737 15.5944 19.8747 16.2424 19.4977C16.4604 19.3707 16.5264 19.0897 16.4094 18.8667C16.0914 18.2587 16.0724 17.4737 16.6004 16.6717C16.6774 16.5557 16.7854 16.4467 16.9024 16.3697C17.6744 15.8587 18.4294 15.8567 19.0274 16.1397C19.2564 16.2477 19.5354 16.1727 19.6554 15.9497C19.9594 15.3857 20.2044 14.7857 20.3834 14.1567C20.4514 13.9157 20.3064 13.6657 20.0694 13.5837Z" fill="#42526E"/>
<mask id="mask0_5821_6456" style="mask-type:luminance" maskUnits="userSpaceOnUse" x="2" y="2" width="19" height="19">
<path fill-rule="evenodd" clip-rule="evenodd" d="M11.7014 16.7007C8.93839 16.7007 6.69939 14.4607 6.69939 11.6987C6.69939 8.93569 8.93839 6.69669 11.7014 6.69669C14.4644 6.69669 16.7034 8.93569 16.7034 11.6987C16.7034 14.4607 14.4644 16.7007 11.7014 16.7007ZM20.0694 13.5837C19.2864 13.3117 18.7234 12.5747 18.7234 11.6987C18.7234 10.8227 19.2864 10.0857 20.0684 9.81369C20.3054 9.73169 20.4514 9.48069 20.3834 9.23969C20.1844 8.53569 19.9014 7.86869 19.5474 7.24669C19.4294 7.03869 19.1704 6.96169 18.9494 7.05169C18.5644 7.20969 18.1194 7.25069 17.6584 7.13269C16.9844 6.95869 16.4334 6.40969 16.2554 5.73669C16.1334 5.27369 16.1744 4.82669 16.3314 4.43969C16.4204 4.21969 16.3434 3.96069 16.1354 3.84269C15.5184 3.49369 14.8564 3.21369 14.1604 3.01669C13.9184 2.94869 13.6684 3.09369 13.5864 3.33069C13.3144 4.11369 12.5774 4.67669 11.7014 4.67669C10.8264 4.67669 10.0884 4.11369 9.81739 3.33169C9.73439 3.09469 9.48339 2.94869 9.24239 3.01669C8.53439 3.21669 7.86339 3.50169 7.23839 3.85869C7.03739 3.97369 6.95239 4.22569 7.04039 4.44069C7.18739 4.80169 7.23239 5.21369 7.13839 5.64369C6.98339 6.34969 6.42439 6.94069 5.72539 7.12769C5.26739 7.25069 4.82739 7.21169 4.44539 7.05969C4.22539 6.97169 3.96739 7.04969 3.85039 7.25569C3.49739 7.87769 3.21539 8.54569 3.01739 9.24969C2.94939 9.48869 3.09239 9.73669 3.32539 9.82169C4.09639 10.0997 4.64839 10.8317 4.64839 11.6987C4.64839 12.5657 4.09639 13.2977 3.32439 13.5757C3.09139 13.6597 2.94939 13.9077 3.01639 14.1467C3.19339 14.7737 3.43839 15.3727 3.73939 15.9367C3.85839 16.1587 4.13439 16.2347 4.36339 16.1297C4.95839 15.8567 5.70639 15.8657 6.46739 16.3677C6.58439 16.4447 6.69239 16.5527 6.76939 16.6687C7.29639 17.4677 7.28139 18.2487 6.96739 18.8557C6.85239 19.0787 6.91939 19.3567 7.13539 19.4837C7.78939 19.8677 8.49739 20.1707 9.24439 20.3807C9.48539 20.4487 9.73339 20.3047 9.81439 20.0677C10.0834 19.2817 10.8234 18.7147 11.7014 18.7147C12.5794 18.7147 13.3194 19.2817 13.5884 20.0677C13.6694 20.3037 13.9174 20.4487 14.1584 20.3807C14.8954 20.1737 15.5944 19.8747 16.2424 19.4977C16.4604 19.3707 16.5264 19.0897 16.4094 18.8667C16.0914 18.2587 16.0724 17.4737 16.6004 16.6717C16.6774 16.5557 16.7854 16.4467 16.9024 16.3697C17.6744 15.8587 18.4294 15.8567 19.0274 16.1397C19.2564 16.2477 19.5354 16.1727 19.6554 15.9497C19.9594 15.3857 20.2044 14.7857 20.3834 14.1567C20.4514 13.9157 20.3064 13.6657 20.0694 13.5837Z" fill="white"/>
</mask>
<g mask="url(#mask0_5821_6456)">
<rect width="24" height="24" fill="#DEEBFF"/>
</g>
</svg>
