<svg width="28" height="28" viewBox="0 0 28 28" fill="none" xmlns="http://www.w3.org/2000/svg">
<circle cx="14" cy="14" r="14" fill="#B3D4FF"/>
<rect width="18" height="18" transform="translate(5 5)" fill="white" fill-opacity="0.01"/>
<path d="M9.86605 11H11C11.4142 11 11.75 11.3358 11.75 11.75C11.75 12.1642 11.4142 12.5 11 12.5H8C7.58579 12.5 7.25 12.1642 7.25 11.75V8.75001C7.25 8.3358 7.58579 8.00001 8 8.00001C8.41421 8.00001 8.75 8.3358 8.75 8.75001V9.98257C9.31768 9.21488 10.047 8.57121 10.9037 8.09633C14.1642 6.289 18.2725 7.46704 20.0798 10.7276C21.8872 13.9881 20.7091 18.0964 17.4486 19.9037C14.1881 21.711 10.0798 20.533 8.27246 17.2725C8.07165 16.9102 8.20254 16.4537 8.56482 16.2529C8.9271 16.0521 9.38358 16.183 9.58439 16.5453C10.9901 19.0812 14.1854 19.9975 16.7214 18.5918C19.2574 17.1861 20.1736 13.9907 18.7679 11.4548C17.3622 8.91881 14.1669 8.00256 11.6309 9.40826C10.9174 9.80377 10.319 10.348 9.86605 11ZM14.9261 11.7533V14.4398L16.5649 16.0786C16.8566 16.3703 16.8566 16.8473 16.5649 17.1391C16.2731 17.4308 15.7961 17.4308 15.5044 17.1391L13.6519 15.2873C13.5131 15.1508 13.4261 14.9626 13.4261 14.7533V11.7533C13.4262 11.7522 13.4261 11.7511 13.4261 11.75V10.25C13.4261 9.8358 13.7619 9.50001 14.1761 9.50001C14.5904 9.50001 14.9261 9.8358 14.9261 10.25V11.75C14.9261 11.7511 14.9261 11.7522 14.9261 11.7533H14.9261Z" fill="white"/>
</svg>
