<svg width="24" height="24" viewBox="0 0 24 24" fill="none" xmlns="http://www.w3.org/2000/svg">
<rect width="24" height="24" fill="white" fill-opacity="0.01"/>
<path d="M19.004 17C19 17 19 7.006 19 7.006C19 7 4.99601 7 4.99601 7C5.00001 7 5.00001 16.994 5.00001 16.994C5.00001 17 19.004 17 19.004 17ZM3.00001 7.006C2.99922 6.74327 3.0502 6.48296 3.15005 6.23994C3.24989 5.99693 3.39664 5.77596 3.5819 5.58967C3.76717 5.40339 3.98732 5.25543 4.22979 5.15425C4.47226 5.05307 4.73228 5.00066 4.99501 5H19.005C19.2677 5.00066 19.5278 5.05307 19.7702 5.15425C20.0127 5.25543 20.2328 5.40339 20.4181 5.58967C20.6034 5.77596 20.7501 5.99693 20.85 6.23994C20.9498 6.48296 21.0008 6.74327 21 7.006V16.994C21.0008 17.2567 20.9498 17.517 20.85 17.7601C20.7501 18.0031 20.6034 18.224 20.4181 18.4103C20.2328 18.5966 20.0127 18.7446 19.7702 18.8458C19.5278 18.9469 19.2677 18.9993 19.005 19H4.99501C4.73228 18.9993 4.47226 18.9469 4.22979 18.8458C3.98732 18.7446 3.76717 18.5966 3.5819 18.4103C3.39664 18.224 3.24989 18.0031 3.15005 17.7601C3.0502 17.517 2.99922 17.2567 3.00001 16.994V7.006Z" fill="#DEEBFF"/>
<path fill-rule="evenodd" clip-rule="evenodd" d="M4.00001 6H20V11H4.00001V6ZM9.00001 8C9.00001 8.556 9.44601 9 9.99501 9H18.005C18.545 9 19 8.552 19 8C19 7.444 18.554 7 18.005 7H9.99501C9.45501 7 9.00001 7.448 9.00001 8ZM5.00001 8C5.00001 8.556 5.44801 9 6.00001 9C6.55601 9 7.00001 8.552 7.00001 8C7.00001 7.444 6.55201 7 6.00001 7C5.44401 7 5.00001 7.448 5.00001 8Z" fill="#DEEBFF"/>
</svg>
